<?xml version="1.0" encoding="utf-8"?>
<!-- Generator: Adobe Illustrator 24.3.0, SVG Export Plug-In . SVG Version: 6.00 Build 0)  -->
<svg version="1.1" id="Capa_1" xmlns="http://www.w3.org/2000/svg" xmlns:xlink="http://www.w3.org/1999/xlink" x="0px" y="0px"
	 viewBox="0 0 50 50" style="enable-background:new 0 0 50 50;" xml:space="preserve">
<style type="text/css">
	.st0{display:none;}
</style>
<path class="st0" d="M23.7,0c0.9,0,1.8,0,2.7,0c0.1,1,0.2,2,0.3,3.2c3.1,0,6.1,0,9.3,0c0,2.2,0,4.2,0,6.4c1.4,0,2.5,0,3.9,0
	c0,12.5,0,24.9,0,37.3c1.9,0,3.6,0,5.3,0c0,1,0,2,0,3C31.7,50,18.3,50,5,50c0-1,0-2,0-3c1.7,0,3.5,0,5.4,0c0-12.6,0-24.9,0-37.5
	c1.3,0,2.5,0,3.9,0c0-2.2,0-4.2,0-6.4c3.2,0,6.2,0,9.2,0C23.5,1.9,23.6,0.9,23.7,0z M36.6,12.7c-7.8,0-15.5,0-23.2,0
	c0,11.5,0,22.8,0,34.2c0.9,0,1.7,0,2.7,0c0-4.5,0-8.9,0-13.3c6,0,11.8,0,17.8,0c0,4.5,0,8.9,0,13.3c1,0,1.8,0,2.7,0
	C36.6,35.5,36.6,24.1,36.6,12.7z M32.8,6.2c-5.3,0-10.4,0-15.5,0c0,1.1,0,2.2,0,3.2c5.2,0,10.3,0,15.5,0C32.8,8.3,32.8,7.4,32.8,6.2
	z M19.2,36.4c0,3.6,0,7,0,10.4c1.5,0,2.8,0,4.2,0c0-3.6,0-6.9,0-10.4C21.9,36.4,20.6,36.4,19.2,36.4z M30.7,46.9c0-3.5,0-7,0-10.4
	c-1.5,0-2.8,0-4.2,0c0,3.5,0,6.9,0,10.4C28,46.9,29.3,46.9,30.7,46.9z M16.2,30.1c1,0,1.8,0,2.7,0c0-1,0-1.9,0-2.8c-1,0-1.8,0-2.7,0
	C16.2,28.3,16.2,29.2,16.2,30.1z M33.7,27.3c-1,0-1.9,0-2.7,0c0,1,0,1.9,0,2.7c1,0,1.8,0,2.7,0C33.7,29.1,33.7,28.2,33.7,27.3z
	 M18.9,15.4c-1,0-1.9,0.1-2.7,0.1c0,1,0,1.9,0,2.8c0.9,0,1.7,0,2.7,0C18.9,17.4,18.9,16.4,18.9,15.4z M31,18.3c1,0,1.8,0,2.7,0
	c0-1,0-1.8,0-2.7c-1,0-1.8,0-2.7,0C31,16.6,31,17.4,31,18.3z M19,24.2c0-1,0-1.8,0-2.7c-1,0-1.9,0-2.8,0c0,1,0,1.8,0,2.7
	C17.3,24.2,18.1,24.2,19,24.2z M33.8,24.2c0-1,0-1.8,0-2.7c-1,0-1.9,0-2.8,0c0,0.9,0,1.7,0,2.7C32,24.2,32.8,24.2,33.8,24.2z
	 M23.7,18.2c1,0,1.8,0,2.8,0c-0.1-1-0.1-1.9-0.2-2.7c-1,0-1.7,0-2.6,0C23.7,16.5,23.7,17.4,23.7,18.2z M26.4,24.2c0-1,0-1.8,0-2.8
	c-0.9,0-1.8,0-2.7,0c0,0.9,0,1.8,0,2.8C24.7,24.2,25.5,24.2,26.4,24.2z M23.7,27.3c0,1,0,1.9,0,2.8c1,0,1.7,0,2.6,0
	c0-0.9,0-1.8,0-2.8C25.3,27.3,24.6,27.3,23.7,27.3z"/>
<path class="st0" d="M30.9,27.8c-0.9,0.8-1.8,1.6-2.8,2.4c-2.7,2.3-5.3,4.5-8,6.8c0,0-0.1,0.1-0.1,0.1c-0.2,0.1-0.2,0.3-0.2,0.6
	c0.7,2.5,1.4,5.1,2.1,7.6c0.2,0.7,0,1.2-0.4,1.7c-0.9,0.9-1.8,1.7-2.6,2.6c-0.7,0.8-2.1,0.7-2.6-0.4c-1.8-3.2-3.5-6.5-5.3-9.7
	c-0.1-0.2-0.2-0.3-0.4-0.4c-3.2-1.8-6.5-3.6-9.7-5.3c-0.9-0.5-1.1-1.6-0.6-2.3c0.1-0.1,0.2-0.2,0.2-0.3c0.9-0.9,1.7-1.7,2.6-2.6
	c0.5-0.5,1-0.6,1.7-0.4c2.6,0.7,5.1,1.4,7.7,2.1c0.2,0.1,0.3,0,0.5-0.1c3-3.6,6.1-7.2,9.2-10.7c0,0,0.1-0.1,0.1-0.2
	c-0.3-0.2-0.7-0.3-1-0.5c-5.9-3-11.8-6-17.6-9C3.1,9.3,2.7,9,2.6,8.4c-0.1-0.5,0-1,0.4-1.3c1.3-1.4,2.7-2.7,4-4
	c0.4-0.4,1-0.5,1.5-0.3c2.7,0.7,5.3,1.5,8,2.2c0.2,0.1,0.3,0,0.4-0.1c0.6-0.6,1.1-1.2,1.7-1.7c0.9-0.9,2.3-0.4,2.6,0.8
	c0.1,0.6,0,1.1-0.4,1.5c-0.2,0.2-0.4,0.4-0.7,0.6c0.9,0.2,1.7,0.5,2.5,0.7c0.2,0.1,0.5,0.1,0.7,0.2c0.2,0.1,0.4,0.1,0.6-0.1
	c0.5-0.5,1.1-1.1,1.6-1.6c0.7-0.7,1.6-0.7,2.3-0.1c0.6,0.6,0.6,1.6,0,2.3c-0.2,0.2-0.4,0.4-0.6,0.6c0.5,0.1,0.9,0.2,1.3,0.4
	c0.7,0.2,1.5,0.4,2.2,0.6c0.2,0,0.3,0,0.4-0.1c1.2-1.4,2.3-2.8,3.6-4.2c2.4-2.5,5.3-3.9,8.7-4.4c1-0.1,2.1-0.2,3.1,0.2
	C48.5,1,49.7,2.5,50,4.5c0.2,1.2-0.1,2.4-0.4,3.6c-0.8,3.2-2.5,5.9-5,8c-1.1,0.9-2.2,1.8-3.2,2.8c-0.1,0.1-0.1,0.2-0.1,0.3
	c0.3,1.1,0.6,2.3,0.9,3.4c0,0,0,0.1,0.1,0.2c0.2-0.2,0.4-0.4,0.6-0.6c0.7-0.6,1.6-0.7,2.2,0c0.6,0.6,0.6,1.6,0,2.3
	c-0.6,0.6-1.1,1.1-1.7,1.7c-0.1,0.1-0.1,0.2-0.1,0.2c0.3,1.1,0.6,2.2,0.9,3.4c0.2-0.2,0.4-0.4,0.6-0.6c0.4-0.4,1-0.6,1.6-0.4
	c0.6,0.2,1,0.6,1.1,1.2c0.1,0.6-0.1,1-0.5,1.4c-0.6,0.6-1.1,1.1-1.7,1.7c-0.1,0.1-0.2,0.2-0.1,0.4c0.7,2.7,1.5,5.3,2.2,8
	c0.2,0.6,0,1.2-0.4,1.7c-1.2,1.2-2.5,2.5-3.7,3.7c-0.9,0.9-2.1,0.7-2.7-0.4c-3.1-6.1-6.2-12.2-9.3-18.3C31,28,31,27.9,30.9,27.8z
	 M18.1,45.9c0.2-0.2,0.3-0.3,0.4-0.4c0.2-0.1,0.2-0.3,0.1-0.5c-0.7-2.6-1.4-5.2-2.1-7.7c-0.2-0.7,0-1.3,0.5-1.8
	c1.4-1.2,2.8-2.4,4.3-3.6c3.3-2.8,6.5-5.6,9.8-8.3c3.4-2.9,6.8-5.8,10.2-8.7c1-0.9,2.1-1.7,2.9-2.7c1.6-2,2.5-4.3,2.7-6.9
	c0.1-1-0.7-2-1.8-2c-0.5,0-1,0-1.4,0.1c-2.8,0.4-5.2,1.7-7.1,3.9c-2,2.3-4,4.6-6,7c-5.3,6.3-10.7,12.5-16,18.8
	c-0.5,0.6-1.1,0.8-1.8,0.6c-2.6-0.7-5.2-1.4-7.8-2.1c-0.1,0-0.2-0.1-0.3,0c-0.2,0.2-0.4,0.3-0.6,0.5C4.3,32,4.3,32,4.4,32.1
	c2.7,1.5,5.4,3,8.1,4.5c0.4,0.2,0.7,0.5,0.9,0.9c0.9,1.6,1.7,3.2,2.6,4.7C16.7,43.4,17.4,44.6,18.1,45.9z M6.8,7.7
	c5.9,3,11.7,6,17.5,9c1.5-1.7,2.9-3.4,4.4-5.2c-0.1,0-0.2-0.1-0.3-0.1c-4.3-1.2-8.7-2.4-13-3.6C13.2,7.2,11,6.6,8.8,6
	C8.7,6,8.5,6,8.5,6C7.9,6.6,7.4,7.1,6.8,7.7z M42.3,43.2c0.1-0.1,0.1-0.1,0.2-0.2c0.5-0.5,0.9-0.9,1.4-1.4c0.1-0.1,0.2-0.2,0.1-0.4
	c-1.7-6-3.3-12-5-18c-0.2-0.6-0.4-1.3-0.5-1.9c-1.7,1.5-3.4,2.9-5.2,4.4C36.3,31.5,39.3,37.3,42.3,43.2z"/>
<path class="st0" d="M24.1,0c0.6,0,1.2,0,1.8,0c0.1,0,0.1,0,0.2,0c0.5,0.1,0.9,0.1,1.4,0.2c4.2,0.8,7.5,3,9.9,6.6
	c1.3,2,2,4.2,2.2,6.5c0.1,1,0.1,1.9,0.1,2.9c0,1.6,0,3.2,0,4.8c0,1.5-1.3,2.7-2.8,2.7c-0.6,0-1.1,0-1.7,0c-0.2,0-0.2,0-0.2,0.2
	c0,0.3-0.1,0.6-0.1,0.9c-0.3,2.2-1.3,4.1-2.8,5.7c-0.1,0.1-0.1,0.2-0.1,0.4c0.5,1,1,1.9,1.5,2.9c0.1,0.2,0.2,0.2,0.3,0.3
	c1.2,0.4,2.3,0.8,3.5,1.2c2.7,0.8,5,2.2,6.8,4.4c1.7,2.1,2.8,4.4,3.2,7.1c0.1,0.5,0.1,1,0.2,1.5c0,0.4,0,0.7,0,1.1
	c-0.1,0.4-0.4,0.6-0.8,0.8c-14.5,0-28.9,0-43.4,0c-0.4-0.1-0.6-0.4-0.8-0.8c0-0.4,0-0.7,0-1.1c0-0.1,0-0.1,0-0.2
	c0.2-2.2,0.8-4.2,1.9-6.1c1.6-2.9,3.9-5,7.1-6.2c1.6-0.6,3.2-1.1,4.7-1.6c0.1,0,0.3-0.1,0.3-0.2c0.5-1,1-2,1.5-3
	c0.1-0.1,0.1-0.2,0-0.3c-0.6-0.6-1.1-1.3-1.5-2.1c-0.1-0.3-0.2-0.6-0.4-0.7c-0.2-0.1-0.6,0-0.9,0c-1.3,0-2.5-1-2.8-2.3
	c-0.1-0.5-0.1-1-0.1-1.6c0-0.1,0-0.2-0.2-0.3c-1.2-0.6-1.8-1.5-1.8-2.8c0-2,0-4,0-6c0-1,0.1-2,0.3-2.9c0.8-3.6,2.6-6.6,5.6-8.8
	c2-1.5,4.3-2.4,6.7-2.8C23.3,0.1,23.7,0,24.1,0z M18.3,27.6c0,0.1,0,0.1,0.1,0.1c2,3.2,5.5,4.5,8.9,3.4c2.4-0.7,4-2.5,5-4.8
	c0.4-0.9,0.5-1.9,0.7-2.8c0.3-1.9,0.5-3.9,0.7-5.8c0-0.4,0-0.8,0.1-1.2c-0.2,0-0.3,0-0.4-0.1c-1.1-0.2-2.2-0.4-3.3-0.6
	c-2.7-0.7-5.1-2.1-7.2-4c-0.1-0.1-0.2-0.2-0.4-0.1c-1.5,0.1-2.9,0.7-4,1.7c-0.9,0.8-1.4,1.8-2.1,2.6c0,0.1-0.1,0.1-0.1,0.2
	c0,0.7,0.1,1.4,0.1,2.2c0.1,1.3,0.3,2.7,0.4,4c0.1,1,0.4,2,0.5,3c0,0.2,0.1,0.2,0.3,0.2c0.8,0,1.6,0,2.4,0c0.1,0,0.2,0,0.3-0.2
	c0.4-0.9,1.1-1.6,2.1-1.7c1-0.1,2-0.1,3,0c1.5,0.1,2.6,1.6,2.5,3.1c-0.1,1.5-1.4,2.7-2.9,2.7c-0.6,0-1.2,0-1.8,0
	c-1.3,0-2.3-0.6-2.9-1.8c0-0.1-0.1-0.1-0.2-0.1C19.5,27.6,19,27.6,18.3,27.6z M26.7,48c6.3,0,12.5,0,18.7,0c0-0.1,0-0.2,0-0.3
	c-0.2-1.5-0.6-3-1.3-4.4c-1.3-2.6-3.2-4.6-5.9-5.8c-0.8-0.4-1.7-0.6-2.6-0.9c-0.7-0.3-1.5-0.5-2.2-0.7c0,0.1-0.1,0.2-0.1,0.3
	c-1.2,3.3-2.8,6.3-4.8,9.1C27.9,46.2,27.3,47.1,26.7,48z M16.6,36c-0.1,0-0.1,0-0.2,0.1c-1.2,0.4-2.3,0.8-3.5,1.2
	c-1.5,0.5-2.9,1.2-4,2.2c-2.3,2-3.6,4.6-4.2,7.5c-0.1,0.3-0.1,0.7-0.1,1c6.2,0,12.4,0,18.7,0c-0.4-0.7-0.8-1.4-1.3-2.1
	c-1.8-2.4-3.3-5-4.4-7.7C17.2,37.5,16.9,36.8,16.6,36z M16.3,12.9c0.1-0.1,0.1-0.1,0.1-0.1c1.6-1.8,3.5-2.8,5.9-3
	c0.6-0.1,1.2-0.1,1.7,0.4c2.7,2.7,6,4,9.9,4.4c0-0.6,0-1.2-0.1-1.8c-0.5-3.3-2.3-5.5-5.4-6.5c-1.7-0.6-3.5-0.5-5.2-0.3
	c-3,0.4-5.1,2.1-6.3,4.8C16.5,11.4,16.4,12.1,16.3,12.9z M14.3,13.7c0-0.2,0-0.3,0-0.5c0.1-0.5,0.1-0.9,0.2-1.4c0.9-4.6,5-8,9.7-7.9
	c1.1,0,2.2-0.1,3.3,0.1c4.3,0.7,7.6,4.3,8.1,8.6c0,0.3,0.1,0.7,0.1,1c0.6,0,1.3,0,1.9,0C37.3,7.7,32,1.8,24.7,2
	c-7.2,0.2-12,6.1-12.3,11.7C13,13.7,13.6,13.7,14.3,13.7z M25,47.2c0.1-0.1,0.1-0.2,0.2-0.3c0.6-0.9,1.1-1.8,1.7-2.6
	c0.5-0.8,1-1.6,1.6-2.4c0.1-0.2,0.1-0.2,0-0.4c-1.1-1.1-2.2-2.2-3.3-3.3C25,38.1,25,38.1,24.9,38c-1,1.1-2,2.1-3,3.2
	c-0.2,0.2-0.4,0.3-0.4,0.5c0,0.2,0.2,0.4,0.3,0.6c0.8,1.3,1.7,2.5,2.5,3.8C24.5,46.4,24.8,46.8,25,47.2z M29.6,39.8
	C29.6,39.8,29.6,39.8,29.6,39.8c0.9-1.6,1.5-3.2,2.1-4.9c0-0.1,0-0.2,0-0.3c-0.4-0.7-0.7-1.5-1.1-2.2c0-0.1-0.1-0.2-0.2-0.3
	c-1.4,1.5-2.8,2.9-4.1,4.4C27.4,37.7,28.5,38.8,29.6,39.8z M19.4,32.5c0,0.1-0.1,0.1-0.1,0.2c-0.3,0.6-0.6,1.3-0.9,1.9
	c0,0.1-0.1,0.3,0,0.4c0.5,1.2,1,2.4,1.5,3.6c0.2,0.4,0.4,0.8,0.6,1.2c1-1.1,2.1-2.2,3.1-3.3C22.1,35.3,20.8,33.9,19.4,32.5z
	 M12.3,15.6c0,0.1,0,0.2,0,0.3c0,1.4,0,2.7,0,4.1c0,0.3,0,0.6,0,0.8c0,0.4,0.4,0.8,0.8,0.8c0.5,0,1.1,0,1.6,0
	c-0.2-2-0.3-4.1-0.5-6.1C13.6,15.6,13,15.6,12.3,15.6z M35.3,21.8c0.4,0,0.9,0,1.3,0c0.6,0,1.1-0.4,1.1-1.1c0-1.6,0-3.2,0-4.8
	c0-0.1,0-0.2,0-0.2c-0.7,0-1.3,0-1.9,0C35.6,17.7,35.4,19.7,35.3,21.8z M24,27.6c0.3,0,0.7,0,1,0c0.5,0,1-0.4,1-1c0-0.5-0.4-1-1-1
	c-0.7,0-1.3,0-2,0c-0.5,0-1,0.5-1,1c0,0.5,0.4,1,1,1C23.4,27.6,23.7,27.6,24,27.6z M23.1,33.3c0.6,0.6,1.2,1.2,1.8,1.8
	c0.5-0.6,1.1-1.1,1.7-1.8C25.4,33.6,24.2,33.5,23.1,33.3z M14.3,23.7c0,0.4,0,0.8,0,1.2c0.1,0.5,0.6,0.8,1.1,0.7
	c-0.1-0.6-0.2-1.2-0.3-1.8c0-0.1-0.1-0.1-0.1-0.1C14.7,23.7,14.5,23.7,14.3,23.7z"/>
<path d="M35.6,5.6c-0.6,0.9-1.1,1.8-1.7,2.6C25.5,2.9,15.1,4.7,9,11c-6.4,6.5-7.6,16.1-3.2,23.9c4.4,7.7,13.5,11.6,22.2,9.4
	c4.8-1.2,8.6-3.8,11.4-7.8c2.9-4,4-8.5,3.6-13.4c1-0.1,2.1-0.2,3.1-0.3c0,0.3,0.1,0.6,0.1,0.9c0.3,5.5-1.2,10.6-4.5,15
	c-3.3,4.4-7.7,7.3-13.1,8.7c-2.2,0.6-4.4,0.8-6.7,0.6c-5-0.3-9.5-2-13.4-5.2C4.6,39.6,2,35.6,0.7,30.7c-0.6-2.3-0.8-4.6-0.7-6.9
	C0.4,17.5,3,12.2,7.6,7.9c3.2-2.9,6.9-4.7,11.1-5.6C20.6,2,22.4,1.9,24.3,2c4,0.2,7.8,1.4,11.2,3.5C35.5,5.5,35.6,5.6,35.6,5.6z
	 M25.7,26.5c-2.8-2.8-5.5-5.6-8.3-8.4c-0.8,0.8-1.5,1.5-2.2,2.3c0.4,0.4,0.8,0.8,1.3,1.3c2.7,2.7,5.4,5.4,8.1,8
	c0.7,0.7,1.7,0.7,2.4,0c7.6-7.6,15.3-15.2,22.9-22.8C49.9,6.8,50,6.8,50,6.8c-0.7-0.8-1.5-1.5-2.2-2.2
	C40.4,11.8,33.1,19.1,25.7,26.5z"/>
</svg>
